<?xml version="1.0" standalone="no"?>
<!DOCTYPE svg PUBLIC "-//W3C//DTD SVG 20010904//EN"
 "http://www.w3.org/TR/2001/REC-SVG-20010904/DTD/svg10.dtd">
<svg version="1.0" xmlns="http://www.w3.org/2000/svg"
 width="1338.000000pt" height="2138.000000pt" viewBox="0 0 1338.000000 2138.000000"
 preserveAspectRatio="xMidYMid meet">
<metadata>
Created by potrace 1.16, written by Peter Selinger 2001-2019
</metadata>
<g transform="translate(0.000000,2138.000000) scale(0.100000,-0.100000)"
fill="#000000" stroke="none">
<path d="M1730 21344 c-876 -127 -1572 -827 -1694 -1703 -14 -101 -16 -986
-16 -8951 0 -7965 2 -8850 16 -8951 111 -798 700 -1457 1480 -1659 249 -65
-151 -60 5174 -60 4336 0 4851 2 4951 16 880 122 1581 823 1703 1703 14 101
16 986 16 8951 0 7965 -2 8850 -16 8951 -111 798 -700 1457 -1480 1659 -249
65 153 60 -5187 59 -4069 -1 -4867 -3 -4947 -15z m9302 -2022 c125 -51 239
-165 290 -290 l23 -57 3 -6585 c2 -5008 0 -6598 -9 -6640 -27 -127 -133 -267
-248 -329 -124 -66 241 -61 -4401 -61 -4642 0 -4277 -5 -4401 61 -110 59 -212
190 -245 314 -11 42 -14 1167 -14 6626 0 6559 0 6577 20 6642 47 153 173 278
328 328 55 17 217 18 4327 16 l4270 -2 57 -23z m-4106 -15328 c171 -29 370
-112 524 -217 41 -29 120 -97 176 -152 193 -192 310 -412 371 -696 24 -114 24
-360 0 -481 -55 -277 -185 -516 -385 -710 -520 -503 -1324 -503 -1844 0 -200
194 -330 433 -385 710 -24 121 -24 367 0 481 61 284 178 504 371 696 114 113
209 182 344 249 258 130 539 171 828 120z"/>
</g>
</svg>
